<svg viewBox="0 0 12 16" fill="currentColor" xmlns="http://www.w3.org/2000/svg">
<path id="Primary" d="M11.25 16C11.6656 16 12 15.6656 12 15.25C12 14.8344 11.6656 14.5 11.25 14.5H0.75C0.334375 14.5 0 14.8344 0 15.25C0 15.6656 0.334375 16 0.75 16H11.25ZM5.46875 11.7812C5.7625 12.075 6.2375 12.075 6.52812 11.7812L10.7812 7.53125C11.075 7.2375 11.075 6.7625 10.7812 6.47188C10.4875 6.18125 10.0125 6.17813 9.72188 6.47188L6.75313 9.44063V0.75C6.75313 0.334375 6.41875 0 6.00313 0C5.5875 0 5.25313 0.334375 5.25313 0.75V9.44063L2.28437 6.47188C1.99062 6.17813 1.51563 6.17813 1.225 6.47188C0.934375 6.76563 0.93125 7.24062 1.225 7.53125L5.46875 11.7812Z"/>
</svg>
