<svg viewBox="0 0 12 16" fill="currentColor" xmlns="http://www.w3.org/2000/svg">
<path id="Primary" d="M4.75 3H7.25C7.66563 3 8 2.66563 8 2.25C8 1.83437 7.66563 1.5 7.25 1.5H4.75C4.33437 1.5 4 1.83437 4 2.25C4 2.66563 4.33437 3 4.75 3ZM4.75 4.5C3.59063 4.5 2.6375 3.625 2.5125 2.5H2C1.725 2.5 1.5 2.725 1.5 3V14C1.5 14.275 1.725 14.5 2 14.5H10C10.275 14.5 10.5 14.275 10.5 14V3C10.5 2.725 10.275 2.5 10 2.5H9.4875C9.3625 3.625 8.40937 4.5 7.25 4.5H4.75ZM7.25 0C8.03125 0 8.71875 0.396875 9.12187 1H10C11.1031 1 12 1.89688 12 3V14C12 15.1031 11.1031 16 10 16H2C0.896875 16 0 15.1031 0 14V3C0 1.89688 0.896875 1 2 1H2.87812C3.28125 0.396875 3.96875 0 4.75 0H7.25ZM5.35 6.03438C5.60625 6.24375 5.64687 6.62188 5.4375 6.87813L4.02187 8.62813C3.90625 8.76875 3.73437 8.85 3.55312 8.85C3.37187 8.85 3.2 8.76562 3.0875 8.625L2.30938 7.65312C2.10313 7.39375 2.14375 7.01562 2.40313 6.80937C2.6625 6.60312 3.04063 6.64375 3.24688 6.90312L3.55938 7.29375L4.50625 6.12187C4.71562 5.86562 5.09375 5.825 5.35 6.03438ZM6 8C6 7.58437 6.33437 7.25 6.75 7.25H8.75C9.16563 7.25 9.5 7.58437 9.5 8C9.5 8.41563 9.16563 8.75 8.75 8.75H6.75C6.33437 8.75 6 8.41563 6 8ZM5.5 11C5.5 10.5844 5.83437 10.25 6.25 10.25H8.75C9.16563 10.25 9.5 10.5844 9.5 11C9.5 11.4156 9.16563 11.75 8.75 11.75H6.25C5.83437 11.75 5.5 11.4156 5.5 11ZM3.5 10C3.76522 10 4.01957 10.1054 4.20711 10.2929C4.39464 10.4804 4.5 10.7348 4.5 11C4.5 11.2652 4.39464 11.5196 4.20711 11.7071C4.01957 11.8946 3.76522 12 3.5 12C3.23478 12 2.98043 11.8946 2.79289 11.7071C2.60536 11.5196 2.5 11.2652 2.5 11C2.5 10.7348 2.60536 10.4804 2.79289 10.2929C2.98043 10.1054 3.23478 10 3.5 10Z"/>
</svg>
