<svg viewBox="0 0 16 16" fill="currentColor" xmlns="http://www.w3.org/2000/svg">
<path id="Primary" d="M8 0C6.89688 0 6 0.896875 6 2V4H2C0.896875 4 0 4.89688 0 6V14C0 15.1031 0.896875 16 2 16H14C15.1031 16 16 15.1031 16 14V2C16 0.896875 15.1031 0 14 0H8ZM3 10.5C3 10.225 3.225 10 3.5 10H4.5C4.775 10 5 10.225 5 10.5V11.5C5 11.775 4.775 12 4.5 12H3.5C3.225 12 3 11.775 3 11.5V10.5ZM8.5 11C8.225 11 8 10.775 8 10.5V9.5C8 9.225 8.225 9 8.5 9H9.5C9.775 9 10 9.225 10 9.5V10.5C10 10.775 9.775 11 9.5 11H8.5ZM12 10.5V9.5C12 9.225 12.225 9 12.5 9H13.5C13.775 9 14 9.225 14 9.5V10.5C14 10.775 13.775 11 13.5 11H12.5C12.225 11 12 10.775 12 10.5ZM3.5 7H4.5C4.775 7 5 7.225 5 7.5V8.5C5 8.775 4.775 9 4.5 9H3.5C3.225 9 3 8.775 3 8.5V7.5C3 7.225 3.225 7 3.5 7ZM8 3.5C8 3.225 8.225 3 8.5 3H9.5C9.775 3 10 3.225 10 3.5V4.5C10 4.775 9.775 5 9.5 5H8.5C8.225 5 8 4.775 8 4.5V3.5ZM12.5 3H13.5C13.775 3 14 3.225 14 3.5V4.5C14 4.775 13.775 5 13.5 5H12.5C12.225 5 12 4.775 12 4.5V3.5C12 3.225 12.225 3 12.5 3ZM8 7.5V6.5C8 6.225 8.225 6 8.5 6H9.5C9.775 6 10 6.225 10 6.5V7.5C10 7.775 9.775 8 9.5 8H8.5C8.225 8 8 7.775 8 7.5ZM12.5 8C12.225 8 12 7.775 12 7.5V6.5C12 6.225 12.225 6 12.5 6H13.5C13.775 6 14 6.225 14 6.5V7.5C14 7.775 13.775 8 13.5 8H12.5Z"/>
</svg>
