<svg viewBox="0 0 17.3713 17.3707" fill="currentColor" xmlns="http://www.w3.org/2000/svg">
<path id="Primary" d="M16.25 0.0488253C16.5563 -0.0605497 16.8937 0.0175752 17.125 0.2457C17.3563 0.473825 17.4312 0.81445 17.3219 1.1207L11.7594 16.6488C11.6031 17.0832 11.1937 17.3707 10.7344 17.3707C10.2906 17.3707 9.89063 17.102 9.725 16.6926L7.71875 11.7551C7.57812 11.4113 7.64063 11.0176 7.88125 10.7363L10.8344 7.22383C10.9938 7.0332 10.9813 6.75508 10.8063 6.58008C10.6313 6.40508 10.35 6.39258 10.1625 6.55195L6.65 9.49883C6.36563 9.73633 5.975 9.79882 5.63125 9.66132L0.678125 7.6457C0.26875 7.48008 0 7.08008 0 6.63633C0 6.17695 0.2875 5.76758 0.721875 5.61133L16.25 0.0488253Z"/>
</svg>
